<svg width="309" height="100" viewBox="0 0 309 100" fill="none" xmlns="http://www.w3.org/2000/svg">
<path d="M46.4645 3.53553C48.4171 1.58291 51.5829 1.58291 53.5355 3.53553L96.4645 46.4645C98.4171 48.4171 98.4171 51.5829 96.4645 53.5355L53.5355 96.4645C51.5829 98.4171 48.4171 98.4171 46.4645 96.4645L3.53553 53.5355C1.58291 51.5829 1.58291 48.4171 3.53553 46.4645L46.4645 3.53553Z" fill="#D6E5FD"/>
<path d="M50 37.5C50.5525 37.5 51.0824 37.7195 51.4731 38.1102C51.8638 38.5009 52.0833 39.0308 52.0833 39.5833V47.9167H56.25C56.8025 47.9167 57.3324 48.1362 57.7231 48.5269C58.1138 48.9176 58.3333 49.4475 58.3333 50C58.3333 50.5525 58.1138 51.0824 57.7231 51.4731C57.3324 51.8638 56.8025 52.0833 56.25 52.0833H50C49.4475 52.0833 48.9176 51.8638 48.5269 51.4731C48.1362 51.0824 47.9167 50.5525 47.9167 50V39.5833C47.9167 39.0308 48.1362 38.5009 48.5269 38.1102C48.9176 37.7195 49.4475 37.5 50 37.5Z" fill="#2D76F9"/>
<path opacity="0.5" d="M29.1667 49.9998C29.1667 54.1203 30.3885 58.1482 32.6777 61.5742C34.9669 65.0002 38.2206 67.6705 42.0274 69.2473C45.8342 70.8242 50.0231 71.2367 54.0644 70.4329C58.1057 69.629 61.8178 67.6448 64.7314 64.7312C67.645 61.8176 69.6292 58.1055 70.433 54.0642C71.2369 50.0229 70.8243 45.8341 69.2475 42.0273C67.6707 38.2205 65.0004 34.9667 61.5744 32.6776C58.1484 30.3884 54.1204 29.1665 50 29.1665C47.2641 29.1665 44.555 29.7054 42.0274 30.7523C39.4998 31.7993 37.2032 33.3339 35.2686 35.2684C31.3616 39.1755 29.1667 44.4745 29.1667 49.9998ZM47.9167 39.5832C47.9167 39.0306 48.1362 38.5007 48.5269 38.11C48.9176 37.7193 49.4475 37.4998 50 37.4998C50.5525 37.4998 51.0824 37.7193 51.4731 38.11C51.8638 38.5007 52.0833 39.0306 52.0833 39.5832V47.9165H56.25C56.8025 47.9165 57.3324 48.136 57.7231 48.5267C58.1138 48.9174 58.3333 49.4473 58.3333 49.9998C58.3333 50.5524 58.1138 51.0823 57.7231 51.473C57.3324 51.8637 56.8025 52.0832 56.25 52.0832H50C49.4475 52.0832 48.9176 51.8637 48.5269 51.473C48.1362 51.0823 47.9167 50.5524 47.9167 49.9998V39.5832Z" fill="#2D76F9"/>
<path d="M135.076 62.288C133.54 62.288 132.772 61.496 132.772 59.912V38.96C132.772 37.4 133.552 36.62 135.112 36.62H143.788C146.572 36.62 148.72 37.292 150.232 38.636C151.744 39.956 152.5 41.816 152.5 44.216C152.5 46.112 152.008 47.684 151.024 48.932C150.04 50.156 148.624 50.984 146.776 51.416C148 51.8 149.008 52.724 149.8 54.188L152.5 59.192C152.908 59.96 152.98 60.668 152.716 61.316C152.476 61.964 151.864 62.288 150.88 62.288C150.232 62.288 149.704 62.156 149.296 61.892C148.888 61.604 148.528 61.172 148.216 60.596L144.58 53.9C144.148 53.084 143.632 52.544 143.032 52.28C142.456 51.992 141.712 51.848 140.8 51.848H137.38V59.912C137.38 61.496 136.612 62.288 135.076 62.288ZM137.38 48.428H142.996C146.356 48.428 148.036 47.06 148.036 44.324C148.036 41.612 146.356 40.256 142.996 40.256H137.38V48.428ZM165.239 62.36C163.247 62.36 161.531 61.988 160.091 61.244C158.651 60.5 157.535 59.444 156.743 58.076C155.975 56.708 155.591 55.088 155.591 53.216C155.591 51.392 155.963 49.796 156.707 48.428C157.475 47.06 158.519 45.992 159.839 45.224C161.183 44.432 162.707 44.036 164.411 44.036C166.907 44.036 168.875 44.828 170.315 46.412C171.779 47.996 172.511 50.156 172.511 52.892C172.511 53.78 171.935 54.224 170.783 54.224H159.911C160.247 57.368 162.047 58.94 165.311 58.94C165.935 58.94 166.631 58.868 167.399 58.724C168.191 58.556 168.935 58.28 169.631 57.896C170.255 57.536 170.783 57.428 171.215 57.572C171.647 57.692 171.947 57.944 172.115 58.328C172.307 58.712 172.331 59.144 172.187 59.624C172.067 60.08 171.731 60.476 171.179 60.812C170.339 61.34 169.367 61.736 168.263 62C167.183 62.24 166.175 62.36 165.239 62.36ZM164.591 47.096C163.271 47.096 162.203 47.504 161.387 48.32C160.571 49.136 160.079 50.24 159.911 51.632H168.767C168.671 50.168 168.263 49.052 167.543 48.284C166.847 47.492 165.863 47.096 164.591 47.096ZM178.378 62.288C176.89 62.288 176.146 61.52 176.146 59.984V46.376C176.146 44.864 176.878 44.108 178.342 44.108C179.806 44.108 180.538 44.864 180.538 46.376V47.096C181.066 46.136 181.798 45.392 182.734 44.864C183.67 44.312 184.75 44.036 185.974 44.036C188.614 44.036 190.342 45.188 191.158 47.492C191.71 46.412 192.502 45.572 193.534 44.972C194.566 44.348 195.742 44.036 197.062 44.036C201.022 44.036 203.002 46.448 203.002 51.272V59.984C203.002 61.52 202.246 62.288 200.734 62.288C199.246 62.288 198.502 61.52 198.502 59.984V51.452C198.502 50.108 198.274 49.124 197.818 48.5C197.386 47.876 196.642 47.564 195.586 47.564C194.41 47.564 193.486 47.984 192.814 48.824C192.142 49.64 191.806 50.78 191.806 52.244V59.984C191.806 61.52 191.062 62.288 189.574 62.288C188.062 62.288 187.306 61.52 187.306 59.984V51.452C187.306 50.108 187.078 49.124 186.622 48.5C186.19 47.876 185.458 47.564 184.426 47.564C183.25 47.564 182.326 47.984 181.654 48.824C180.982 49.64 180.646 50.78 180.646 52.244V59.984C180.646 61.52 179.89 62.288 178.378 62.288ZM209.877 40.796C209.037 40.796 208.377 40.592 207.897 40.184C207.441 39.752 207.213 39.164 207.213 38.42C207.213 37.652 207.441 37.064 207.897 36.656C208.377 36.248 209.037 36.044 209.877 36.044C211.653 36.044 212.541 36.836 212.541 38.42C212.541 40.004 211.653 40.796 209.877 40.796ZM209.877 62.252C209.157 62.252 208.605 62.036 208.221 61.604C207.837 61.172 207.645 60.572 207.645 59.804V46.592C207.645 44.96 208.389 44.144 209.877 44.144C211.389 44.144 212.145 44.96 212.145 46.592V59.804C212.145 60.572 211.953 61.172 211.569 61.604C211.185 62.036 210.621 62.252 209.877 62.252ZM219.052 62.288C217.564 62.288 216.82 61.52 216.82 59.984V46.376C216.82 44.864 217.552 44.108 219.016 44.108C220.48 44.108 221.212 44.864 221.212 46.376V47.132C221.812 46.124 222.616 45.356 223.624 44.828C224.656 44.3 225.808 44.036 227.08 44.036C231.232 44.036 233.308 46.448 233.308 51.272V59.984C233.308 61.52 232.564 62.288 231.076 62.288C229.564 62.288 228.808 61.52 228.808 59.984V51.488C228.808 50.12 228.544 49.124 228.016 48.5C227.512 47.876 226.72 47.564 225.64 47.564C224.32 47.564 223.264 47.984 222.472 48.824C221.704 49.64 221.32 50.732 221.32 52.1V59.984C221.32 61.52 220.564 62.288 219.052 62.288ZM244.647 62.36C243.111 62.36 241.755 61.988 240.579 61.244C239.427 60.5 238.527 59.444 237.879 58.076C237.231 56.684 236.907 55.052 236.907 53.18C236.907 51.284 237.231 49.664 237.879 48.32C238.527 46.952 239.427 45.896 240.579 45.152C241.755 44.408 243.111 44.036 244.647 44.036C245.895 44.036 247.023 44.312 248.031 44.864C249.039 45.416 249.795 46.148 250.299 47.06V38.6C250.299 37.088 251.043 36.332 252.531 36.332C254.043 36.332 254.799 37.088 254.799 38.6V59.984C254.799 61.52 254.055 62.288 252.567 62.288C251.079 62.288 250.335 61.52 250.335 59.984V59.228C249.831 60.188 249.075 60.956 248.067 61.532C247.059 62.084 245.919 62.36 244.647 62.36ZM245.907 58.94C247.251 58.94 248.331 58.46 249.147 57.5C249.963 56.516 250.371 55.076 250.371 53.18C250.371 51.26 249.963 49.832 249.147 48.896C248.331 47.936 247.251 47.456 245.907 47.456C244.563 47.456 243.483 47.936 242.667 48.896C241.851 49.832 241.443 51.26 241.443 53.18C241.443 55.076 241.851 56.516 242.667 57.5C243.483 58.46 244.563 58.94 245.907 58.94Z" fill="#212121"/>
<path d="M261.769 62.288C260.281 62.288 259.537 61.52 259.537 59.984V46.376C259.537 44.864 260.269 44.108 261.733 44.108C263.197 44.108 263.929 44.864 263.929 46.376V47.096C264.457 46.136 265.189 45.392 266.125 44.864C267.061 44.312 268.141 44.036 269.365 44.036C272.005 44.036 273.733 45.188 274.549 47.492C275.101 46.412 275.893 45.572 276.925 44.972C277.957 44.348 279.133 44.036 280.453 44.036C284.413 44.036 286.393 46.448 286.393 51.272V59.984C286.393 61.52 285.637 62.288 284.125 62.288C282.637 62.288 281.893 61.52 281.893 59.984V51.452C281.893 50.108 281.665 49.124 281.209 48.5C280.777 47.876 280.033 47.564 278.977 47.564C277.801 47.564 276.877 47.984 276.205 48.824C275.533 49.64 275.197 50.78 275.197 52.244V59.984C275.197 61.52 274.453 62.288 272.965 62.288C271.453 62.288 270.697 61.52 270.697 59.984V51.452C270.697 50.108 270.469 49.124 270.013 48.5C269.581 47.876 268.849 47.564 267.817 47.564C266.641 47.564 265.717 47.984 265.045 48.824C264.373 49.64 264.037 50.78 264.037 52.244V59.984C264.037 61.52 263.281 62.288 261.769 62.288ZM299.711 62.36C297.719 62.36 296.003 61.988 294.563 61.244C293.123 60.5 292.007 59.444 291.215 58.076C290.447 56.708 290.063 55.088 290.063 53.216C290.063 51.392 290.435 49.796 291.179 48.428C291.947 47.06 292.991 45.992 294.311 45.224C295.655 44.432 297.179 44.036 298.883 44.036C301.379 44.036 303.347 44.828 304.787 46.412C306.251 47.996 306.983 50.156 306.983 52.892C306.983 53.78 306.407 54.224 305.255 54.224H294.383C294.719 57.368 296.519 58.94 299.783 58.94C300.407 58.94 301.103 58.868 301.871 58.724C302.663 58.556 303.407 58.28 304.103 57.896C304.727 57.536 305.255 57.428 305.687 57.572C306.119 57.692 306.419 57.944 306.587 58.328C306.779 58.712 306.803 59.144 306.659 59.624C306.539 60.08 306.203 60.476 305.651 60.812C304.811 61.34 303.839 61.736 302.735 62C301.655 62.24 300.647 62.36 299.711 62.36ZM299.063 47.096C297.743 47.096 296.675 47.504 295.859 48.32C295.043 49.136 294.551 50.24 294.383 51.632H303.239C303.143 50.168 302.735 49.052 302.015 48.284C301.319 47.492 300.335 47.096 299.063 47.096Z" fill="#2D76F9"/>
</svg>
